####
#
# OBJ File Generated by Meshlab
#
####
# Object file.obj
#
# Vertices: 72
# Faces: 108
#
####
mtllib ./file.obj.mtl

vn -1.907886 -2.000000 1.166179
v 173.337601 0.000000 936.477417 0.749020 0.749020 0.749020
vn -1.166179 -1.000000 -1.907885
v 205.132706 0.000000 885.594482 0.749020 0.749020 0.749020
vn 1.907886 -2.000000 -1.166179
v 256.015594 0.000000 917.389587 0.749020 0.749020 0.749020
vn 1.166179 -1.000000 1.907885
v 224.220505 0.000000 968.272522 0.749020 0.749020 0.749020
vn -2.226016 2.000000 -0.211788
v 173.337601 720.000000 936.477417 0.749020 0.749020 0.749020
vn -0.211788 1.000000 2.226015
v 224.220505 720.000000 968.272522 0.749020 0.749020 0.749020
vn 2.226016 2.000000 0.211788
v 256.015594 720.000000 917.389587 0.749020 0.749020 0.749020
vn 0.211789 1.000000 -2.226015
v 205.132706 720.000000 885.594482 0.749020 0.749020 0.749020
vn -1.907886 -2.000000 1.166176
v -256.018188 0.000000 -917.389771 0.749020 0.749020 0.749020
vn -1.166176 -1.000000 -1.907888
v -224.223007 0.000000 -968.272583 0.749020 0.749020 0.749020
vn 1.907886 -2.000000 -1.166176
v -173.340103 0.000000 -936.477417 0.749020 0.749020 0.749020
vn 1.166176 -1.000000 1.907889
v -205.135300 0.000000 -885.594604 0.749020 0.749020 0.749020
vn -2.226014 2.000000 -0.211792
v -256.018188 720.000000 -917.389771 0.749020 0.749020 0.749020
vn -0.211791 1.000000 2.226017
v -205.135300 720.000000 -885.594604 0.749020 0.749020 0.749020
vn 2.226014 2.000000 0.211793
v -173.340103 720.000000 -936.477417 0.749020 0.749020 0.749020
vn 0.211791 1.000000 -2.226016
v -224.223007 720.000000 -968.272583 0.749020 0.749020 0.749020
vn -1.907884 -2.000000 1.166180
v 885.860229 0.000000 -203.797195 0.749020 0.749020 0.749020
vn -1.166178 -1.000000 -1.907885
v 917.655396 0.000000 -254.680206 0.749020 0.749020 0.749020
vn 1.907888 -2.000000 -1.166177
v 968.538330 0.000000 -222.884995 0.749020 0.749020 0.749020
vn 1.166179 -1.000000 1.907887
v 936.743225 0.000000 -172.002106 0.749020 0.749020 0.749020
vn -2.226015 2.000000 -0.211788
v 885.860229 720.000000 -203.797195 0.749020 0.749020 0.749020
vn -0.211787 1.000000 2.226017
v 936.743225 720.000000 -172.002106 0.749020 0.749020 0.749020
vn 2.226017 2.000000 0.211789
v 968.538330 720.000000 -222.884995 0.749020 0.749020 0.749020
vn 0.211791 1.000000 -2.226014
v 917.655396 720.000000 -254.680206 0.749020 0.749020 0.749020
vn -1.907888 -2.000000 1.166177
v -968.538391 0.000000 222.880905 0.749020 0.749020 0.749020
vn -1.166177 -1.000000 -1.907885
v -936.743286 0.000000 171.998001 0.749020 0.749020 0.749020
vn 1.907888 -2.000000 -1.166177
v -885.860413 0.000000 203.793198 0.749020 0.749020 0.749020
vn 1.166177 -1.000000 1.907885
v -917.655518 0.000000 254.676102 0.749020 0.749020 0.749020
vn -2.226017 2.000000 -0.211789
v -968.538391 720.000000 222.880905 0.749020 0.749020 0.749020
vn -0.211791 1.000000 2.226014
v -917.655518 720.000000 254.676102 0.749020 0.749020 0.749020
vn 2.226017 2.000000 0.211789
v -885.860413 720.000000 203.793198 0.749020 0.749020 0.749020
vn 0.211791 1.000000 -2.226014
v -936.743286 720.000000 171.998001 0.749020 0.749020 0.749020
vn -2.755936 0.999992 0.636259
v -917.272217 719.999878 254.915604 0.749020 0.749020 0.749020
vn -0.318130 1.999996 -1.377967
v -885.477112 719.999878 204.032806 0.749020 0.749020 0.749020
vn -0.636259 -1.000008 -2.755933
v -885.476929 659.999878 204.032898 0.749020 0.749020 0.749020
vn -1.377968 -2.000004 0.318130
v -917.271973 659.999878 254.915802 0.749020 0.749020 0.749020
vn 1.166176 2.000000 1.907887
v 173.114395 720.000122 936.264709 0.749020 0.749020 0.749020
vn -0.211790 -0.999999 2.226016
v 173.114395 660.000122 936.264709 0.749020 0.749020 0.749020
vn 2.226015 -2.000000 0.211791
v 204.909607 660.000122 885.381775 0.749020 0.749020 0.749020
vn 1.907886 1.000000 -1.166177
v 204.909607 720.000122 885.381775 0.749020 0.749020 0.749020
vn -2.755934 0.999993 0.636257
v -204.665405 719.999878 -885.493530 0.749020 0.749020 0.749020
vn -0.318129 1.999997 -1.377968
v -172.870300 719.999878 -936.376282 0.749020 0.749020 0.749020
vn -0.636257 -1.000006 -2.755935
v -172.870102 659.999878 -936.376221 0.749020 0.749020 0.749020
vn -1.377967 -2.000004 0.318129
v -204.665207 659.999878 -885.493408 0.749020 0.749020 0.749020
vn 1.166177 2.000000 1.907886
v 885.721191 720.000122 -204.144394 0.749020 0.749020 0.749020
vn -0.211790 -1.000000 2.226016
v 885.721191 660.000122 -204.144394 0.749020 0.749020 0.749020
vn 2.226016 -2.000000 0.211791
v 917.516296 660.000122 -255.027206 0.749020 0.749020 0.749020
vn 1.907886 1.000001 -1.166177
v 917.516296 720.000122 -255.027206 0.749020 0.749020 0.749020
vn 0.636256 1.000000 2.755934
v -885.645203 719.999878 203.303894 0.749020 0.749020 0.749020
vn -1.377968 2.000000 0.318128
v -936.528076 719.999878 171.508698 0.749020 0.749020 0.749020
vn -2.755936 -1.000000 0.636257
v -936.528076 659.999878 171.508698 0.749020 0.749020 0.749020
vn 0.318128 -2.000000 1.377967
v -885.645203 659.999878 203.303894 0.749020 0.749020 0.749020
vn 1.907887 2.000000 -1.166177
v -205.304596 719.999878 -885.468628 0.749020 0.749020 0.749020
vn 2.226016 -1.000000 0.211791
v -205.304596 659.999878 -885.468628 0.749020 0.749020 0.749020
vn 0.211790 -2.000000 -2.226016
v -256.187500 659.999878 -917.263794 0.749020 0.749020 0.749020
vn -1.166177 1.000000 -1.907887
v -256.187500 719.999878 -917.263794 0.749020 0.749020 0.749020
vn 0.636258 1.000000 2.755935
v 256.378113 719.999878 916.919189 0.749020 0.749020 0.749020
vn -1.377967 2.000000 0.318129
v 205.495193 719.999878 885.124023 0.749020 0.749020 0.749020
vn -2.755934 -1.000000 0.636258
v 205.495193 659.999878 885.124023 0.749020 0.749020 0.749020
vn 0.318129 -2.000000 1.377968
v 256.378113 659.999878 916.919189 0.749020 0.749020 0.749020
vn 1.907884 2.000000 -1.166179
v 936.718811 719.999878 -171.853302 0.749020 0.749020 0.749020
vn 2.226014 -1.000000 0.211790
v 936.718811 659.999878 -171.853302 0.749020 0.749020 0.749020
vn 0.211788 -2.000000 -2.226017
v 885.835815 659.999878 -203.648407 0.749020 0.749020 0.749020
vn -1.166178 1.000000 -1.907888
v 885.835815 719.999878 -203.648407 0.749020 0.749020 0.749020
vn -1.907886 -2.000008 1.166177
v -885.995483 708.240295 203.848404 0.749020 0.749020 0.749020
vn -1.166177 -1.000000 -1.907887
v -205.113495 708.240417 -885.790588 0.749020 0.749020 0.749020
vn 1.907887 -2.000003 -1.166177
v 886.032776 708.240417 -203.966599 0.749020 0.749020 0.749020
vn 1.166177 -1.000010 1.907887
v 205.150894 708.240295 885.672180 0.749020 0.749020 0.749020
vn -2.226016 1.999996 -0.211790
v -885.995483 719.981873 203.848404 0.749020 0.749020 0.749020
vn -0.211790 0.999989 2.226016
v 205.150894 719.981873 885.672302 0.749020 0.749020 0.749020
vn 2.226016 1.999995 0.211791
v 886.032776 719.981873 -203.966599 0.749020 0.749020 0.749020
vn 0.211791 1.000000 -2.226015
v -205.113495 719.981873 -885.790588 0.749020 0.749020 0.749020
# 72 vertices, 0 vertices normals


usemtl material_0
vt 1.000000 0.000000
vt 1.000000 1.000000
vt 0.000000 1.000000
f 1/1/1 2/2/2 3/3/3
vt 0.000000 0.000000
f 1/1/1 3/3/3 4/4/4
f 5/4/5 6/1/6 7/2/7
f 5/4/5 7/2/7 8/3/8
f 1/4/1 4/1/4 6/2/6
f 1/4/1 6/2/6 5/3/5
f 4/4/4 3/1/3 7/2/7
f 4/4/4 7/2/7 6/3/6
f 3/4/3 2/1/2 8/2/8
f 3/4/3 8/2/8 7/3/7
f 2/4/2 1/1/1 5/2/5
f 2/4/2 5/2/5 8/3/8
f 9/1/9 10/2/10 11/3/11
f 9/1/9 11/3/11 12/4/12
f 13/4/13 14/1/14 15/2/15
f 13/4/13 15/2/15 16/3/16
f 9/4/9 12/1/12 14/2/14
f 9/4/9 14/2/14 13/3/13
f 12/4/12 11/1/11 15/2/15
f 12/4/12 15/2/15 14/3/14
f 11/4/11 10/1/10 16/2/16
f 11/4/11 16/2/16 15/3/15
f 10/4/10 9/1/9 13/2/13
f 10/4/10 13/2/13 16/3/16
f 17/1/17 18/2/18 19/3/19
f 17/1/17 19/3/19 20/4/20
f 21/4/21 22/1/22 23/2/23
f 21/4/21 23/2/23 24/3/24
f 17/4/17 20/1/20 22/2/22
f 17/4/17 22/2/22 21/3/21
f 20/4/20 19/1/19 23/2/23
f 20/4/20 23/2/23 22/3/22
f 19/4/19 18/1/18 24/2/24
f 19/4/19 24/2/24 23/3/23
f 18/4/18 17/1/17 21/2/21
f 18/4/18 21/2/21 24/3/24
f 25/1/25 26/2/26 27/3/27
f 25/1/25 27/3/27 28/4/28
f 29/4/29 30/1/30 31/2/31
f 29/4/29 31/2/31 32/3/32
f 25/4/25 28/1/28 30/2/30
f 25/4/25 30/2/30 29/3/29
f 28/4/28 27/1/27 31/2/31
f 28/4/28 31/2/31 30/3/30
f 27/4/27 26/1/26 32/2/32
f 27/4/27 32/2/32 31/3/31
f 26/4/26 25/1/25 29/2/29
f 26/4/26 29/2/29 32/3/32
f 33/1/33 34/2/34 35/3/35
f 33/1/33 35/3/35 36/4/36
f 37/4/37 38/1/38 39/2/39
f 37/4/37 39/2/39 40/3/40
f 33/4/33 36/1/36 38/2/38
f 33/4/33 38/2/38 37/3/37
f 36/4/36 35/1/35 39/2/39
f 36/4/36 39/2/39 38/3/38
f 35/4/35 34/1/34 40/2/40
f 35/4/35 40/2/40 39/3/39
f 34/4/34 33/1/33 37/2/37
f 34/4/34 37/2/37 40/3/40
f 41/1/41 42/2/42 43/3/43
f 41/1/41 43/3/43 44/4/44
f 45/4/45 46/1/46 47/2/47
f 45/4/45 47/2/47 48/3/48
f 41/4/41 44/1/44 46/2/46
f 41/4/41 46/2/46 45/3/45
f 44/4/44 43/1/43 47/2/47
f 44/4/44 47/2/47 46/3/46
f 43/4/43 42/1/42 48/2/48
f 43/4/43 48/2/48 47/3/47
f 42/4/42 41/1/41 45/2/45
f 42/4/42 45/2/45 48/3/48
f 49/1/49 50/2/50 51/3/51
f 49/1/49 51/3/51 52/4/52
f 53/4/53 54/1/54 55/2/55
f 53/4/53 55/2/55 56/3/56
f 49/4/49 52/1/52 54/2/54
f 49/4/49 54/2/54 53/3/53
f 52/4/52 51/1/51 55/2/55
f 52/4/52 55/2/55 54/3/54
f 51/4/51 50/1/50 56/2/56
f 51/4/51 56/2/56 55/3/55
f 50/4/50 49/1/49 53/2/53
f 50/4/50 53/2/53 56/3/56
f 57/1/57 58/2/58 59/3/59
f 57/1/57 59/3/59 60/4/60
f 61/4/61 62/1/62 63/2/63
f 61/4/61 63/2/63 64/3/64
f 57/4/57 60/1/60 62/2/62
f 57/4/57 62/2/62 61/3/61
f 60/4/60 59/1/59 63/2/63
f 60/4/60 63/2/63 62/3/62
f 59/4/59 58/1/58 64/2/64
f 59/4/59 64/2/64 63/3/63
f 58/4/58 57/1/57 61/2/61
f 58/4/58 61/2/61 64/3/64
vt 0.000500 0.000500
vt 0.000500 0.999500
vt 0.999500 0.999500
f 65/5/65 66/6/66 67/7/67
vt 0.999500 0.000500
f 65/5/65 67/7/67 68/8/68
f 69/5/69 70/8/70 71/7/71
f 69/5/69 71/7/71 72/6/72
f 65/5/65 68/8/68 70/8/70
f 65/5/65 70/8/70 69/5/69
f 68/8/68 67/7/67 71/7/71
f 68/8/68 71/7/71 70/8/70
f 67/7/67 66/6/66 72/6/72
f 67/7/67 72/6/72 71/7/71
f 66/6/66 65/5/65 69/5/69
f 66/6/66 69/5/69 72/6/72
# 108 faces, 8 coords texture

# End of File
